<?xml version="1.0" encoding="utf-8"?>
<!-- Generator: Adobe Illustrator 18.0.0, SVG Export Plug-In . SVG Version: 6.00 Build 0)  -->
<!DOCTYPE svg PUBLIC "-//W3C//DTD SVG 1.1//EN" "http://www.w3.org/Graphics/SVG/1.1/DTD/svg11.dtd">
<svg version="1.1" id="Layer_1" xmlns="http://www.w3.org/2000/svg" xmlns:xlink="http://www.w3.org/1999/xlink" x="0px" y="0px"
   width="37px" viewBox="0 0 34 31.1" enable-background="new 0 0 34 31.1" xml:space="preserve">
<g>
  
    <line fill-rule="evenodd" clip-rule="evenodd" fill="none" stroke="#F9F9F9" stroke-linecap="round" stroke-linejoin="round" stroke-miterlimit="10" x1="21.9" y1="2.3" x2="12.2" y2="3.8"/>
  
    <polyline fill-rule="evenodd" clip-rule="evenodd" fill="none" stroke="#F9F9F9" stroke-linecap="round" stroke-linejoin="round" stroke-miterlimit="10" points="
    23.5,25.9 23.9,28 23.1,28.4 20.8,29.2 20.8,29.2 18.6,28.2 20.4,26.3   "/>
  
    <polygon fill-rule="evenodd" clip-rule="evenodd" fill="none" stroke="#F9F9F9" stroke-linecap="round" stroke-linejoin="round" stroke-miterlimit="10" points="
    19.4,29.6 17.4,30 9.9,26.8 9,25.2 8.6,23.9 20.8,29.2 19.4,29.6  "/>
  
    <polyline fill-rule="evenodd" clip-rule="evenodd" fill="none" stroke="#F9F9F9" stroke-linecap="round" stroke-linejoin="round" stroke-miterlimit="10" points="
    23.9,28 23.9,28 26.1,26.6 26.5,20.4   "/>
  
    <polygon fill-rule="evenodd" clip-rule="evenodd" fill="none" stroke="#F9F9F9" stroke-linecap="round" stroke-linejoin="round" stroke-miterlimit="10" points="
    26.5,20.4 26.5,19.6 23.9,12.1 15.6,22.1 20.4,26.3 23.5,25.9 26.5,20.4   "/>
  
    <polyline fill-rule="evenodd" clip-rule="evenodd" fill="none" stroke="#F9F9F9" stroke-linecap="round" stroke-linejoin="round" stroke-miterlimit="10" points="
    15.6,22.1 15.6,22.1 12.8,21   "/>
  
    <path fill-rule="evenodd" clip-rule="evenodd" fill="none" stroke="#F9F9F9" stroke-linecap="round" stroke-linejoin="round" stroke-miterlimit="10" d="
    M9.2,23"/>
  
    <polyline fill-rule="evenodd" clip-rule="evenodd" fill="none" stroke="#F9F9F9" stroke-linecap="round" stroke-linejoin="round" stroke-miterlimit="10" points="
    11.7,4.8 12.8,20.8 8.7,24   "/>
  
    <polyline fill-rule="evenodd" clip-rule="evenodd" fill="none" stroke="#F9F9F9" stroke-linecap="round" stroke-linejoin="round" stroke-miterlimit="10" points="
    22.5,2.5 17.1,1.1 12.5,2.7 12.2,3.8 12.2,3.8  "/>
  
    <path fill-rule="evenodd" clip-rule="evenodd" fill="none" stroke="#F9F9F9" stroke-linecap="round" stroke-linejoin="round" stroke-miterlimit="10" d="
    M22.5,2.5"/>
  
    <polyline fill-rule="evenodd" clip-rule="evenodd" fill="none" stroke="#F9F9F9" stroke-linecap="round" stroke-linejoin="round" stroke-miterlimit="10" points="
    22.5,2.5 23.5,3.4 26,10.7 26.5,19.6 23.9,12.1 23.9,12.1 21.9,2.4  "/>
  
    <path fill-rule="evenodd" clip-rule="evenodd" fill="none" stroke="#F9F9F9" stroke-linecap="round" stroke-linejoin="round" stroke-miterlimit="10" d="
    M17.7,6c0,0.3-0.3,0.6-0.6,0.6c-0.3,0-0.6-0.3-0.6-0.6c0-0.3,0.3-0.6,0.6-0.6C17.4,5.5,17.7,5.7,17.7,6L17.7,6z"/>
  
    <path fill-rule="evenodd" clip-rule="evenodd" fill="none" stroke="#F9F9F9" stroke-linecap="round" stroke-linejoin="round" stroke-miterlimit="10" d="
    M12.5,2.7"/>
  
    <polyline fill-rule="evenodd" clip-rule="evenodd" fill="none" stroke="#F9F9F9" stroke-linecap="round" stroke-linejoin="round" stroke-miterlimit="10" points="
    12.5,2.7 7,16.4 8,21.6 9,25.2 9,25.2  "/>
</g>
</svg>
