<?xml version="1.0" encoding="utf-8"?>
<!-- Generator: Adobe Illustrator 18.0.0, SVG Export Plug-In . SVG Version: 6.00 Build 0)  -->
<!DOCTYPE svg PUBLIC "-//W3C//DTD SVG 1.1//EN" "http://www.w3.org/Graphics/SVG/1.1/DTD/svg11.dtd">
<svg version="1.1" id="Bed_1_" xmlns="http://www.w3.org/2000/svg" xmlns:xlink="http://www.w3.org/1999/xlink" x="0px" y="0px"
   width="83.2px" height="57px" viewBox="0 0 83.2 57" enable-background="new 0 0 83.2 57" display="none" xml:space="preserve">
<path display="inline" fill="#FFFFFF" d="M57.3,28h-0.2L55,25.8v-8c0-0.3-0.4-0.8-0.7-0.8h-25C29,17,29,17.5,29,17.8v8L26.5,28h-0.2
  C26,28,26,28.5,26,28.8v9c0,0.3,0.1,0.2,0.3,0.2h1.9c0.3,0,0.7,0.1,0.7-0.2v-1.3l0-0.5h25.6l0.4,0.5v1.3c0,0.3,0,0.2,0.3,0.2h2
  c0.3,0,0.7,0.1,0.7-0.2v-9C58,28.5,57.6,28,57.3,28z M43.1,20.6l0-0.2c0-0.1,0-0.3,0-0.4c0.1,0,0.2,0,0.4,0l0.7,0
  c1.4,0.1,3,0.1,4.4,0l0.5,0c0.1,0,0.3,0,0.4,0c0,0.1,0,0.3,0,0.4c0,0.6-0.1,1.5-0.1,2.1c0,0.6,0,1.6,0.1,2.3
  c-2.1-0.4-4.1-0.6-6.2-0.6c0-0.5,0-1.1,0-1.5C43.2,22.1,43.1,21.2,43.1,20.6z M50.3,24h1.8l1.4,1.7c-1.1-0.3-2.1-0.5-3.2-0.7
  c0,0,0-0.1,0-0.1C50.3,24.6,50.3,25,50.3,24z M34.8,24.6c0-0.2-0.1-0.4-0.1-0.7c-0.1-0.6-0.3-1.4-0.5-2c0,0,0-0.2,0-0.2
  c0-0.1-0.1-0.3-0.1-0.4c0.1,0,0.2,0,0.4,0c0,0,0.2,0,0.2,0l0.5-0.1c0.7-0.1,1.4-0.2,2.1-0.4c0.8-0.2,1.5-0.4,2.2-0.6l0.5-0.1
  c0.1,0,0.3-0.1,0.4-0.1c0,0.1,0,0.3,0.1,0.4c0.1,0.6,0.3,1.5,0.4,2.1c0.1,0.5,0.2,1.1,0.4,1.6L34.8,24.6z M33.8,24
  c0,1,0.1,0.5,0.1,0.8c-1.3,0.2-2.5,0.4-3.7,0.7l1.3-1.5H33.8z M28.8,27c4-1.3,8.8-1.9,13.2-1.9c4.2,0,8.3,0.7,12.6,2.1
  c0,0,0.1-0.1,0.1-0.1l1,0.9h-28L28.8,27z M30,18h24v6.7l-1.2-1.4c-0.1-0.1-0.3-0.3-0.5-0.3h-2c0,0,0-0.3,0-0.5c0-0.6,0-1.4,0.1-2.1
  c0-0.3,0.1-0.6,0.1-0.7c0-0.2-0.1-0.4-0.2-0.6S49.8,19,49.5,19c0,0-0.3,0.1-0.6,0.1l-0.5,0c-1.3,0.1-2.9,0.1-4.3,0l-0.7,0
  c-0.3,0-0.6-0.1-0.7-0.1c-0.2,0-0.4,0.1-0.6,0.2c-0.1,0.1-0.2,0.4-0.2,0.6c0,0,0.1,0.3,0.1,0.6l0,0.2c0,0.6,0.1,1.3,0.1,1.9
  c0,0.4,0,0.4,0,1.4c0,0,0,0,0,0c0,0,0,0,0,0c-0.1-1-0.3-1.2-0.4-1.7c-0.1-0.6-0.3-1.4-0.4-2.1c-0.1-0.3-0.1-0.6-0.1-0.7
  c-0.1-0.4-0.4-0.6-0.7-0.6c-0.1,0-0.2,0-0.3,0.1c0,0-0.3,0.1-0.6,0.2l-0.5,0.1c-0.7,0.2-1.4,0.4-2.1,0.5c-0.7,0.1-1.4,0.3-2,0.4
  l-0.5,0.1l-0.2,0c-0.3,0.1-0.6,0.1-0.7,0.1c-0.2,0-0.4,0.2-0.5,0.3c-0.1,0.2-0.1,0.4-0.1,0.7c0,0,0.1,0.3,0.2,0.6l0,0
  c0.1,0.4,0.2,1.1,0.3,1.1h-2.2c-0.1,0-0.2,0.2-0.3,0.3l-1,1.4V18z M57,37h-1v-0.7c0-0.1-0.2-0.3-0.3-0.4l-0.6-0.7
  c-0.1-0.1-0.3-0.3-0.4-0.3h-26c-0.1,0-0.3,0.2-0.4,0.3L28,35.9c-0.1,0.1,0,0.3,0,0.4V37h-1v-8h0.8H57V37z"/>
</svg>
