<?xml version="1.0" encoding="utf-8"?>
<!-- Generator: Adobe Illustrator 18.0.0, SVG Export Plug-In . SVG Version: 6.00 Build 0)  -->
<!DOCTYPE svg PUBLIC "-//W3C//DTD SVG 1.1//EN" "http://www.w3.org/Graphics/SVG/1.1/DTD/svg11.dtd">
<svg version="1.1" id="Fridge_1_" xmlns="http://www.w3.org/2000/svg" xmlns:xlink="http://www.w3.org/1999/xlink" x="0px" y="0px"
   width="83.2px" height="57px" viewBox="0 0 83.2 57" enable-background="new 0 0 83.2 57" display="none" xml:space="preserve">
<g display="inline">
  <path fill="#FFFFFF" d="M45.4,9H33.6c-1.4,0-2.6,1.1-2.6,2.6v25.9c0,0.8,0.4,1.5,1,2v2c0,0.3,0.2,0.5,0.5,0.5h14
    c0.3,0,0.5-0.2,0.5-0.5v-2c0.6-0.5,1-1.2,1-2V11.6C48,10.1,46.9,9,45.4,9z M32,11.6c0-0.9,0.7-1.6,1.6-1.6h11.9
    c0.9,0,1.6,0.7,1.6,1.6V19H32V11.6z M46,41H33v-1.1c0.2,0,0.4,0.1,0.6,0.1h11.9c0.2,0,0.4,0,0.6-0.1V41z M47,37.4
    c0,0.9-0.7,1.6-1.6,1.6H33.6c-0.9,0-1.6-0.7-1.6-1.6V20h15V37.4z"/>
  <path fill="#FFFFFF" d="M42,38h2.1c1.7,0,1.9-1,1.9-1.6V33c0-0.3-0.2-0.5-0.5-0.5S45,32.7,45,33v3.4c0,0.2,0,0.6-0.9,0.6H42
    c-0.3,0-0.5,0.2-0.5,0.5S41.7,38,42,38z"/>
  <path fill="#FFFFFF" d="M42,11h-5c-0.3,0-0.5,0.2-0.5,0.5S36.7,12,37,12h5c0.3,0,0.5-0.2,0.5-0.5S42.3,11,42,11z"/>
  <path fill="#FFFFFF" d="M36,17h-3c-0.3,0-0.5,0.2-0.5,0.5S32.7,18,33,18h3c0.3,0,0.5-0.2,0.5-0.5S36.3,17,36,17z"/>
  <path fill="#FFFFFF" d="M33,22h3c0.3,0,0.5-0.2,0.5-0.5S36.3,21,36,21h-3c-0.3,0-0.5,0.2-0.5,0.5S32.7,22,33,22z"/>
</g>
</svg>
