<svg xmlns="http://www.w3.org/2000/svg" xmlns:xlink="http://www.w3.org/1999/xlink" version="1.1" id="Dog_1_" x="0px" y="0px" width="83.2px" height="57px" viewBox="0 0 83.2 57" enable-background="new 0 0 83.2 57" xml:space="preserve">
  <path fill="#FFFFFF" d="M55 15.3l-1.9-0.6c-0.1-0.1-0.2-0.3-0.3-0.4 -0.8-0.8-2-1.5-3.2-1.6 0 0 0 0 0 0 0 0-0.1 0-0.1 0 0 0 0 0 0 0 0 0 0 0 0 0l-2.4 0.9c-0.3 0.1-0.6 0.4-0.7 0.7 -0.1 0.2 0 0.5 0.1 0.8l-2.7 3.8c0 0-0.1 0.1-0.2 0.1l-9.8 0.3c-0.6 0.1-1 0.2-1.3 0.3 -0.9-1.8-1.2-3.9-0.9-5.9 0.1-0.5-0.2-0.9-0.7-1 -0.2 0-0.3 0-0.4 0 -0.2 0.1-0.4 0.3-0.5 0.5 -0.9 2.6-0.8 5.4 0.4 7.9 -0.6 0.7-1.2 1.7-1.2 2.9 0 0 0 0.1 0 0.1 0 0 0 0.1 0 0.1 0 2.5-0.8 4.7-2.4 6.4 -0.1 0.2-0.2 0.4-0.3 0.6l-0.9 5c0 0 0 0.1 0 0.1 0 0 0 0.1 0 0.1 0 0.4 0.3 0.8 0.7 0.8h1.4l0.2 0c0.9-0.1 1-0.7 1-0.8 0-0.4-0.3-0.7-0.6-0.9 0.1-1.7 0.8-3.3 2.1-4.4 0 0 0 0 0.1 0 0.2-0.1 0.3-0.3 0.5-0.5l0 0c0 0 0 0 0 0 0.4-0.3 0.7-0.7 1-1.1 -0.1 0.8-0.4 1.6-0.8 2.3 -0.2 0.2-0.2 0.6-0.2 0.9l0.9 3.9c0.1 0.4 0.4 0.6 0.7 0.6h2.1c0.3 0 0.5-0.2 0.5-0.5 0-0.6-0.1-0.9-0.3-1.2 -0.3-0.3-0.6-0.3-0.9-0.3 -0.1-0.1-0.1-0.3-0.1-0.7 0.1-1.5 0.6-3.2 1.5-4.3 0.3-0.5 0.7-1.1 0.8-1.6 0.1-0.5 0.2-1 0.2-1.5v-1.4c0.2 0 0.4 0.1 0.6 0.2l0.5 0.2c1.6 0.9 3 1.5 4.9 1.8l0.2 7.1c0 0.1 0 0.3 0 0.5 0 0.4 0 0.8 0.1 1.1 0.1 0.3 0.4 0.5 0.8 0.5h2 2c0.2 0 0.4-0.1 0.5-0.3 0.2-0.4 0.2-0.7 0-1 -0.1-0.2-0.3-0.5-0.8-0.5 -0.3-0.1-0.5-0.4-0.5-0.7l0.9-6.9c0.6-0.6 1-1.4 1.3-2.2l1.8-6.2c0.1-0.3 0.4-0.4 0.7-0.3 0.4 0.1 0.8 0.2 1.2 0.2 1.7 0 3.1-1.2 3.4-2.9C55.6 15.8 55.3 15.5 55 15.3zM48.7 14l0.6 2.1c0 0.2-0.2 0.4-0.3 0.4 -0.2 0.1-0.4 0-0.5-0.2l-1.3-1.8L48.7 14zM35 26.9c0 0.4 0 0.9-0.1 1.3 -0.1 0.4-0.4 1-0.7 1.4 -1 1.2-1.7 3-1.7 4.8 0 0 0 0 0 0 0 0 0 0 0 0 0 0.8 0.2 1.2 0.5 1.5 0.1 0.1 0.2 0.2 0.4 0.2h-0.8l-0.8-3.7c0 0 0-0.1 0-0.2 0.5-0.9 1.1-2.4 1.1-3.8 0-0.3 0-0.5 0-0.8 0.2-0.5 0.4-1 0.5-1.5 0 0 0 0 0 0 0.5-0.3 1-0.4 1.6-0.5V26.9zM45.5 36c0-0.1 0-0.2-0.1-0.3 -0.1-0.3-0.3-0.5-0.6-0.6 -0.1-0.1-0.2-0.4-0.2-0.7l0.5-5.5c0.3-0.1 0.6-0.3 0.9-0.5l-0.8 5.9c-0.1 0.7 0.3 1.3 1 1.6H45.5zM52.1 18.1c-0.3 0-0.6-0.1-0.9-0.2 -0.7-0.3-1.7 0.1-2 0.9 0 0 0 0.1 0 0.1l-1.8 6.2c-0.3 1.2-1.2 2.1-2.3 2.7l0.1-0.9c0-0.3-0.2-0.5-0.5-0.5 -0.3 0-0.5 0.2-0.5 0.5l-0.7 7.6c0 0.6 0.2 1.3 0.7 1.6h-1.2c0-0.2 0-0.4 0-0.6 0-0.2 0-0.4 0-0.5l-0.2-9.6c0-0.3-0.2-0.3-0.5-0.3 0 0 0 0 0 0 -0.3 0-0.5 0-0.5 0.3l0 1.4c-1.6-0.3-2.9-0.8-4.4-1.6L37 24.8c-0.6-0.3-1.1-0.4-1.8-0.4 -0.6 0-1.2 0.1-1.7 0.3 0-0.3 0.1-0.6 0.1-0.9 0-0.3-0.2-0.5-0.5-0.5s-0.5 0.2-0.5 0.5c0 2.2-0.9 4.3-2.5 5.8L30 29.7c-1.8 1.4-2.9 3.5-2.9 5.7l0 0.2c0 0.1 0.1 0.3 0.2 0.4h-0.8l0.9-4.8c1.7-1.8 2.6-4.4 2.6-7.1 0 0 0-0.1 0-0.1 0 0 0-0.1 0-0.1 0-1 0.6-1.9 1.2-2.5 0.1-0.2 0.2-0.4 0.1-0.5 -0.8-1.7-1.1-3.6-0.9-5.4 0.1 1.7 0.5 3.4 1.4 4.9 0.1 0.1 0.2 0.2 0.3 0.2 0.1 0 0.3 0 0.4-0.1 0 0 0.4-0.3 1.3-0.4l9.7-0.3c0.4 0 0.8-0.2 1-0.5l2.5-3.4 0.8 1.1c0.3 0.4 0.7 0.6 1.2 0.6 0.2 0 0.3 0 0.5-0.1 0.6-0.2 1-0.8 1-1.5 0 0 0-0.1 0-0.1l-0.6-2.1c0.9 0.2 1.8 0.6 2.3 1.3 0.1 0.1 0.2 0.3 0.4 0.5 0.1 0.1 0.2 0.2 0.3 0.2l1.9 0.6C54.2 17.3 53.3 18.1 52.1 18.1z"/>
</svg>