<?xml version="1.0" encoding="utf-8"?>
<!-- Generator: Adobe Illustrator 18.0.0, SVG Export Plug-In . SVG Version: 6.00 Build 0)  -->
<!DOCTYPE svg PUBLIC "-//W3C//DTD SVG 1.1//EN" "http://www.w3.org/Graphics/SVG/1.1/DTD/svg11.dtd">
<svg version="1.1" id="Blueberry" xmlns="http://www.w3.org/2000/svg" xmlns:xlink="http://www.w3.org/1999/xlink" x="0px" y="0px"
	 width="83.2px" height="57px" viewBox="0 0 83.2 57" enable-background="new 0 0 83.2 57" xml:space="preserve">
<g display="inline">
	<g>
		<polygon fill="#5C58A6" points="2.8,28.5 29.5,54 79.9,46.3 56.3,2.1 21.9,2.1 		"/>
		<polygon fill="#6E69B0" points="1.9,28.3 5.4,28.8 25.5,4.7 21.3,1.4 		"/>
		<polygon fill="#6461AB" points="21.3,1.4 25.5,4.6 53.9,4.9 56.4,0.7 		"/>
		<polygon fill="#5350A2" points="68.9,29.1 72.4,29.6 56.4,0.7 53.9,4.9 		"/>
		<polygon fill="#424299" points="66,43.8 81.9,46.6 72.3,29.4 68.9,29.1 		"/>
		<polygon fill="#6461AB" points="5.4,28.8 15.6,16.5 14.8,36.5 		"/>
		<polygon fill="#5350A2" points="1.9,28.3 5.4,28.8 30.9,49.6 29.2,54.8 		"/>
		<polygon fill="#383B95" points="30.9,49.6 66,43.8 81.9,46.6 29.2,54.8 		"/>
	</g>
</g>
</svg>
