<?xml version="1.0" encoding="utf-8"?>
<!-- Generator: Adobe Illustrator 18.0.0, SVG Export Plug-In . SVG Version: 6.00 Build 0)  -->
<!DOCTYPE svg PUBLIC "-//W3C//DTD SVG 1.1//EN" "http://www.w3.org/Graphics/SVG/1.1/DTD/svg11.dtd">
<svg version="1.1" id="Marshmallow" xmlns="http://www.w3.org/2000/svg" xmlns:xlink="http://www.w3.org/1999/xlink" x="0px"
   y="0px" width="83.2px" height="57px" viewBox="0 0 83.2 57" enable-background="new 0 0 83.2 57" 
   xml:space="preserve">
<g display="inline">
  <g>
    <polygon fill="#A1DBF7" points="1.9,28.9 29.7,54.2 80,46.8 56.5,1.3 21.4,2    "/>
    <polygon fill="#D4ECFB" points="1.6,29 5.2,29 25.2,4.7 21,1.7     "/>
    <polygon fill="#BFE3F8" points="21,1.5 25.2,4.6 53.6,4.7 56.1,0.6     "/>
    <polygon fill="#81C7EA" points="68.6,29 72.2,29.5 56.1,0.6 53.6,4.7     "/>
    <polygon fill="#65BEE1" points="65.7,43.7 81.6,46.5 72,29.2 68.6,29     "/>
    <polygon fill="#AEDFF8" points="5.2,28.7 15.3,16.5 14.5,36.7    "/>
    <polygon fill="#81C7EA" points="1.6,29 5.2,29 30.6,49.6 29,54.8     "/>
    <polyline fill="#57A5C4" points="30,51.4 30.6,49.5 65.7,43.7 81.6,46.5 29,54.7 30,51.4    "/>
  </g>
</g>
</svg>
