<svg xmlns="http://www.w3.org/2000/svg" xmlns:xlink="http://www.w3.org/1999/xlink" version="1.1" id="Blank_Green" x="0" y="0" viewBox="0 0 83.2 57" enable-background="new 0 0 83.2 57" xml:space="preserve">
  <polygon fill="#9FCDAE" points="2.8 28.5 29.7 54.3 80.7 46.5 55.2 1.3 22.1 1.9 "/>
  <polygon fill="#CDE2D2" points="1.8 28.4 5.4 28.9 25.7 4.5 21.4 1.2 "/>
  <polygon fill="#C2DCC9" points="21.4 1.2 25.7 4.5 53.6 4.7 56.1 0.5 "/>
  <polygon fill="#99C5A7" points="68.7 29.2 72.3 29.7 56.1 0.5 53.6 4.7 "/>
  <polygon fill="#85AB93" points="65.8 44 81.8 46.9 72.1 29.5 68.7 29.2 "/>
  <polygon fill="#B7D7C1" points="5.4 28.9 15.7 16.5 14.9 36.7 "/>
  <polygon fill="#99C5A7" points="1.8 28.4 5.4 28.9 31.2 49.9 29.5 55.1 "/>
  <polygon fill="#759A84" points="31.2 49.9 65.8 44 81.8 46.9 29.5 55.1 "/>
</svg>